HIERARCHY
ROOT Hips
{
	OFFSET 0.000000 0.000000 0.000000
	CHANNELS 6 Xposition Yposition Zposition Zrotation Yrotation Xrotation 
	JOINT LHipJoint
	{
		OFFSET 0.000000 0.000000 0.000000
		CHANNELS 3 Zrotation Yrotation Xrotation
		JOINT LeftUpLeg
		{
			OFFSET 1.363060 -1.794630 0.839290
			CHANNELS 3 Zrotation Yrotation Xrotation
			JOINT LeftLeg
			{
				OFFSET 2.448110 -6.726130 0.000000
				CHANNELS 3 Zrotation Yrotation Xrotation
				JOINT LeftFoot
				{
					OFFSET 2.562200 -7.039590 0.000000
					CHANNELS 3 Zrotation Yrotation Xrotation
					JOINT LeftToeBase
					{
						OFFSET 0.157640 -0.433110 2.322550
						CHANNELS 3 Zrotation Yrotation Xrotation
						End Site
						{
							OFFSET 0.000000 0.000000 0.000000
						}
					}
				}
			}
		}
	}
	JOINT RHipJoint
	{
		OFFSET 0.000000 0.000000 0.000000
		CHANNELS 3 Zrotation Yrotation Xrotation
		JOINT RightUpLeg
		{
			OFFSET -1.305520 -1.794630 0.839290
			CHANNELS 3 Zrotation Yrotation Xrotation
			JOINT RightLeg
			{
				OFFSET -2.542530 -6.985550 0.000000
				CHANNELS 3 Zrotation Yrotation Xrotation
				JOINT RightFoot
				{
					OFFSET -2.568260 -7.056230 0.000000
					CHANNELS 3 Zrotation Yrotation Xrotation
					JOINT RightToeBase
					{
						OFFSET -0.164730 -0.452590 2.363150
						CHANNELS 3 Zrotation Yrotation Xrotation
						End Site
						{
							OFFSET 0.000000 0.000000 0.000000
						}
					}
				}
			}
		}
	}
	JOINT LowerBack
	{
		OFFSET 0.000000 0.000000 0.000000
		CHANNELS 3 Zrotation Yrotation Xrotation
		JOINT Spine
		{
			OFFSET 0.028270 2.035590 -0.193380
			CHANNELS 3 Zrotation Yrotation Xrotation
			JOINT Spine1
			{
				OFFSET 0.056720 2.048850 -0.042750
				CHANNELS 3 Zrotation Yrotation Xrotation
				JOINT Neck
				{
					OFFSET 0.000000 0.000000 0.000000
					CHANNELS 3 Zrotation Yrotation Xrotation
					JOINT Neck1
					{
						OFFSET -0.054170 1.746240 0.172020
						CHANNELS 3 Zrotation Yrotation Xrotation
						JOINT Head
						{
							OFFSET 0.104070 1.761360 -0.123970
							CHANNELS 3 Zrotation Yrotation Xrotation
							End Site
							{
								OFFSET 0.000000 0.000000 0.000000
							}
						}
					}
				}
				JOINT LeftShoulder
				{
					OFFSET 0.000000 0.000000 0.000000
					CHANNELS 3 Zrotation Yrotation Xrotation
					JOINT LeftArm
					{
						OFFSET 3.362410 1.200890 -0.311210
						CHANNELS 3 Zrotation Yrotation Xrotation
						JOINT LeftForeArm
						{
							OFFSET 4.983000 -0.000000 -0.000000
							CHANNELS 3 Zrotation Yrotation Xrotation
							JOINT LeftHand
							{
								OFFSET 3.483560 -0.000000 -0.000000
								CHANNELS 3 Zrotation Yrotation Xrotation
								JOINT LeftFingerBase
								{
									OFFSET 0.000000 0.000000 0.000000
									CHANNELS 3 Zrotation Yrotation Xrotation
									JOINT LeftHandIndex1
									{
										OFFSET 0.715260 -0.000000 -0.000000
										CHANNELS 3 Zrotation Yrotation Xrotation
										End Site
										{
											OFFSET 0.000000 0.000000 0.000000
										}
									}
								}
								JOINT LThumb
								{
									OFFSET 0.000000 0.000000 0.000000
									CHANNELS 3 Zrotation Yrotation Xrotation
									End Site
									{
										OFFSET 0.000000 0.000000 0.000000
									}
								}
							}
						}
					}
				}
				JOINT RightShoulder
				{
					OFFSET 0.000000 0.000000 0.000000
					CHANNELS 3 Zrotation Yrotation Xrotation
					JOINT RightArm
					{
						OFFSET -3.136600 1.374050 -0.404650
						CHANNELS 3 Zrotation Yrotation Xrotation
						JOINT RightForeArm
						{
							OFFSET -5.241900 -0.000000 -0.000000
							CHANNELS 3 Zrotation Yrotation Xrotation
							JOINT RightHand
							{
								OFFSET -3.444170 -0.000000 -0.000000
								CHANNELS 3 Zrotation Yrotation Xrotation
								JOINT RightFingerBase
								{
									OFFSET 0.000000 0.000000 0.000000
									CHANNELS 3 Zrotation Yrotation Xrotation
									JOINT RightHandIndex1
									{
										OFFSET -0.622530 -0.000000 -0.000000
										CHANNELS 3 Zrotation Yrotation Xrotation
										End Site
										{
											OFFSET 0.000000 0.000000 0.000000
										}
									}
								}
								JOINT RThumb
								{
									OFFSET 0.000000 0.000000 0.000000
									CHANNELS 3 Zrotation Yrotation Xrotation
									End Site
									{
										OFFSET 0.000000 0.000000 0.000000
									}
								}
							}
						}
					}
				}
			}
		}
	}
}
MOTION
Frames: 10
Frame Time: 0.008333
4.590774 17.368049 0.423203 -170.165902 -77.804199 -171.041958 -11.385506 0.259712 -2.988956 -5.704784 22.807965 -18.051448 -2.561601 -1.144312 -5.461255 1.292233 11.500226 5.251236 2.885500 -0.000000 -41.623900 8.975413 -0.541748 2.048552 5.017155 5.813061 -18.345349 2.780581 1.293381 -2.096953 0.380375 -0.298550 6.343878 -0.925400 0.000000 -57.127900 1.200164 -0.999554 1.967151 -0.552004 -1.008620 -2.663992 -7.160827 -0.851325 -0.737670 11.151558 -12.132684 -3.954758 -3.153859 -0.272603 0.900340 0.000000 0.000000 0.000000 4.650136 2.804261 -0.585912 -68.295886 -0.859203 30.575499 -179.563155 -78.500848 179.986350 2.667532 5.748236 0.131810 -0.048402 0.259231 0.000000 0.000000 0.000000 0.000000 0.000000 0.000000 0.000000 9.986200 -8.361713 -0.201871 78.199555 11.269133 43.122720 179.402424 78.340516 179.958950 -6.201746 0.054749 -0.024505 0.201698 -0.427750 -0.000000 0.000000 0.000000 0.000000 0.000000 0.000000 0.000000 
4.567333 17.366644 0.415846 -170.808445 -77.040674 -170.513988 -11.417446 0.340926 -2.970406 -5.756505 23.299661 -17.826943 -2.584262 -1.166505 -5.575043 1.337070 11.674622 5.206356 2.886400 -0.000000 -41.499600 8.963984 -0.596664 2.250439 4.900094 6.156403 -18.361602 2.799397 1.306097 -2.153881 0.417257 0.103370 6.406054 -0.795400 0.000000 -57.234500 1.431258 -0.989599 1.665222 -0.517621 -1.026735 -2.688262 -7.214717 -0.867529 -0.591436 10.873533 -12.219817 -4.024413 -3.125106 -0.270388 0.888933 0.000000 0.000000 0.000000 4.558968 2.961421 -0.487485 -66.671036 -1.857480 31.891885 -179.517505 -78.539863 179.989452 2.089031 5.983779 0.108452 -0.044476 0.248200 0.000000 0.000000 0.000000 0.000000 0.000000 0.000000 0.000000 9.664119 -8.437894 -0.217817 78.327850 11.485168 43.801358 179.398714 78.288219 179.960451 -5.998233 0.061192 -0.024018 0.197313 -0.427802 -0.000000 0.000000 0.000000 0.000000 0.000000 0.000000 0.000000 
4.543636 17.364992 0.409438 -171.388744 -76.278468 -170.058081 -11.450990 0.428460 -2.939844 -5.809232 23.762618 -17.591650 -2.602952 -1.189258 -5.700907 1.389481 11.876682 5.168145 2.891600 0.000000 -41.380500 8.950550 -0.652016 2.457359 4.774028 6.510260 -18.371255 2.816390 1.319689 -2.205933 0.452993 0.478847 6.462202 -0.675300 0.000000 -57.348799 1.687471 -0.985683 1.347831 -0.480628 -1.053981 -2.713536 -7.279736 -0.892480 -0.442520 10.597697 -12.315775 -4.103596 -3.094519 -0.267926 0.875231 0.000000 0.000000 0.000000 4.488846 3.071001 -0.364515 -64.871157 -2.999852 33.227298 -179.471284 -78.545823 179.992264 1.515346 6.382695 0.085076 -0.041148 0.232039 0.000000 0.000000 0.000000 0.000000 0.000000 0.000000 0.000000 9.344960 -8.523510 -0.226642 78.443382 11.719364 44.469327 179.394100 78.225793 179.962049 -5.778459 0.082887 -0.024235 0.192288 -0.428506 -0.000000 0.000000 0.000000 0.000000 0.000000 0.000000 0.000000 
4.519952 17.363254 0.404029 -171.905104 -75.522809 -169.678736 -11.486873 0.520490 -2.899665 -5.857109 24.197061 -17.340857 -2.617004 -1.212062 -5.838101 1.449428 12.104805 5.138161 2.900600 0.000000 -41.256400 8.934237 -0.708042 2.666968 4.642405 6.876611 -18.368889 2.831290 1.333311 -2.251454 0.486946 0.821714 6.514897 -0.566900 -0.000000 -57.474200 1.965775 -0.985272 1.020865 -0.442063 -1.087531 -2.737844 -7.356612 -0.923043 -0.288431 10.333756 -12.416264 -4.193277 -3.061025 -0.265095 0.858656 0.000000 0.000000 0.000000 4.443718 3.149379 -0.213490 -62.896118 -4.333226 34.565396 -179.424309 -78.532271 179.994671 0.941692 6.922895 0.058887 -0.038498 0.211260 0.000000 0.000000 0.000000 0.000000 0.000000 0.000000 0.000000 9.034848 -8.613609 -0.230468 78.541847 11.964980 45.107425 179.389771 78.149253 179.963663 -5.552758 0.113455 -0.024754 0.186687 -0.429737 -0.000000 0.000000 0.000000 0.000000 0.000000 0.000000 0.000000 
4.496665 17.361493 0.399712 -172.367151 -74.776255 -169.369860 -11.523666 0.614671 -2.852350 -5.898290 24.603528 -17.096090 -2.627000 -1.231316 -5.932308 1.511323 12.356821 5.086285 2.913001 -0.000000 -41.128300 8.914941 -0.764627 2.877251 4.506039 7.252485 -18.347809 2.844331 1.346907 -2.295063 0.518998 1.133881 6.568659 -0.469100 -0.000000 -57.611700 2.259248 -0.987291 0.688996 -0.403235 -1.125818 -2.760752 -7.443440 -0.957789 -0.131955 10.089090 -12.518322 -4.288379 -3.024002 -0.261904 0.840479 0.000000 0.000000 0.000000 4.441443 3.183072 -0.035875 -60.758760 -5.853470 35.865171 -179.378802 -78.504027 179.996700 0.356633 7.535431 0.026485 -0.035756 0.187619 0.000000 0.000000 0.000000 0.000000 0.000000 0.000000 0.000000 8.738384 -8.706678 -0.228497 78.616597 12.222534 45.708558 179.386786 78.064074 179.965182 -5.336300 0.148044 -0.025477 0.180842 -0.431348 -0.000000 0.000000 0.000000 0.000000 0.000000 0.000000 0.000000 
4.474161 17.359792 0.396535 -172.784286 -74.037262 -169.127979 -11.554020 0.704168 -2.802420 -5.930514 24.981718 -16.957522 -2.636026 -1.232649 -5.757366 1.549556 12.626139 4.881316 2.927800 -0.000000 -40.996100 8.892495 -0.821052 3.086414 4.366812 7.634446 -18.301669 2.856134 1.360641 -2.339425 0.549624 1.418568 6.627417 -0.380900 -0.000001 -57.763199 2.560228 -0.989457 0.358689 -0.365698 -1.165898 -2.781585 -7.538268 -0.993906 0.023874 9.871152 -12.618430 -4.383142 -2.982856 -0.258374 0.822164 0.000000 0.000000 0.000000 4.498500 3.162346 0.165244 -58.468008 -7.551767 37.087425 -179.337403 -78.466046 179.998473 -0.246379 8.129178 -0.013728 -0.032163 0.163589 0.000000 0.000000 0.000000 0.000000 0.000000 0.000000 0.000000 8.459245 -8.800060 -0.220536 78.662598 12.490896 46.264878 179.386079 77.971149 179.966501 -5.143459 0.180618 -0.026102 0.175080 -0.433173 -0.000000 0.000000 0.000000 0.000000 0.000000 0.000000 0.000000 
4.452495 17.358236 0.394523 -173.157489 -73.312637 -168.949394 -11.586828 0.794567 -2.749769 -5.951662 25.340552 -16.804959 -2.641155 -1.231805 -5.569681 1.590328 12.910824 4.676387 2.944100 -0.000000 -40.859600 8.867462 -0.878373 3.291891 4.226996 8.016765 -18.227912 2.866766 1.373684 -2.388280 0.578846 1.680210 6.694859 -0.300200 -0.000000 -57.929800 2.862884 -0.992204 0.031902 -0.330200 -1.207707 -2.800548 -7.638329 -1.031561 0.176534 9.686232 -12.713423 -4.471732 -2.936853 -0.254528 0.805224 0.000000 0.000000 0.000000 4.628628 3.078655 0.385240 -56.028153 -9.410925 38.197675 -179.303092 -78.423690 -179.999855 -0.863556 8.602626 -0.060848 -0.027124 0.142058 0.000000 0.000000 0.000000 0.000000 0.000000 0.000000 0.000000 8.199841 -8.893527 -0.206657 78.674429 12.768094 46.771955 179.388594 77.874102 179.967537 -4.986244 0.205215 -0.026426 0.169694 -0.434974 -0.000000 0.000000 0.000000 0.000000 0.000000 0.000000 0.000000 
4.432017 17.356905 0.393712 -173.494825 -72.603220 -168.829644 -11.621940 0.884923 -2.696856 -5.960568 25.685901 -16.637232 -2.642982 -1.228614 -5.369992 1.632612 13.204592 4.474257 2.960900 -0.000000 -40.720900 8.840305 -0.936262 3.491488 4.089401 8.393539 -18.125402 2.876708 1.385594 -2.442246 0.607081 1.924587 6.773651 -0.225000 -0.000000 -58.113000 3.161676 -0.995122 -0.287083 -0.297608 -1.250225 -2.817361 -7.741763 -1.069903 0.323861 9.539619 -12.799839 -4.549358 -2.885234 -0.250373 0.790910 0.000000 0.000000 0.000000 4.833043 2.931819 0.619535 -53.423421 -11.415511 39.171378 -179.278874 -78.380479 -179.998113 -1.475811 8.868662 -0.110369 -0.020448 0.125604 0.000000 0.000000 0.000000 0.000000 0.000000 0.000000 0.000000 7.962080 -8.985594 -0.187747 78.649475 13.052413 47.226554 179.395037 77.774679 179.968234 -4.872459 0.216354 -0.026349 0.164879 -0.436532 -0.000000 0.000000 0.000000 0.000000 0.000000 0.000000 0.000000 
4.412718 17.355760 0.394113 -173.797006 -71.911289 -168.765886 -11.659102 0.974752 -2.645801 -5.956241 26.022392 -16.453024 -2.642218 -1.223095 -5.159188 1.675334 13.500739 4.276360 2.976700 -0.000000 -40.585200 8.811999 -0.994343 3.682360 3.956995 8.755073 -17.992370 2.886811 1.396362 -2.503621 0.635193 2.161076 6.864989 -0.152100 -0.000001 -58.313701 3.444857 -0.999749 -0.594301 -0.269069 -1.293825 -2.834092 -7.842069 -1.110291 0.455538 9.438039 -12.879941 -4.605638 -2.827886 -0.246071 0.782246 0.000000 0.000000 0.000000 5.148000 2.677738 0.854023 -50.684332 -13.459468 39.968387 -179.270905 -78.347756 -179.995969 -2.064761 8.849863 -0.155994 -0.011139 0.116596 0.000000 0.000000 0.000000 0.000000 0.000000 0.000000 0.000000 7.749541 -9.080854 -0.159480 78.578394 13.349494 47.636868 179.404687 77.676111 179.968543 -4.810415 0.211608 -0.025869 0.161126 -0.437674 -0.000000 0.000000 0.000000 0.000000 0.000000 0.000000 0.000000 
4.394682 17.354949 0.395749 -174.068792 -71.235658 -168.752608 -11.698095 1.063590 -2.597820 -5.939067 26.355060 -16.254422 -2.639580 -1.215314 -4.940281 1.717532 13.793551 4.086369 2.991300 0.000000 -40.455700 8.783002 -1.052096 3.863021 3.833293 9.094947 -17.834189 2.897771 1.405601 -2.569111 0.663704 2.396457 6.970773 -0.079200 0.000000 -58.532400 3.711078 -1.006874 -0.887410 -0.244604 -1.338898 -2.849828 -7.939103 -1.153092 0.574538 9.384776 -12.949627 -4.642092 -2.763454 -0.241506 0.778727 0.000000 0.000000 0.000000 5.545139 2.345644 1.087729 -47.758314 -15.548268 40.601052 -179.280093 -78.330530 -179.993449 -2.599845 8.533565 -0.190619 0.000147 0.115566 0.000000 0.000000 0.000000 0.000000 0.000000 0.000000 0.000000 7.562968 -9.176891 -0.125641 78.461914 13.657883 48.003183 179.417644 77.576101 179.968499 -4.795917 0.188363 -0.024785 0.158330 -0.438215 -0.000000 0.000000 0.000000 0.000000 0.000000 0.000000 0.000000 
